HIERARCHY
ROOT Hips
{
	OFFSET 0.000000 0.000000 0.000000
	CHANNELS 6 Xposition Yposition Zposition Xrotation Yrotation Zrotation
	JOINT LeftUpLeg_virtual
	{
		OFFSET 0.000000 0.000000 0.000000
		CHANNELS 3 Xrotation Yrotation Zrotation
		JOINT LeftUpLeg
		{
			OFFSET 10.205400 -3.823500 0.155100
			CHANNELS 3 Xrotation Yrotation Zrotation
			JOINT LeftLeg
			{
				OFFSET 0.708757 -12.982077 0.567790
				CHANNELS 3 Xrotation Yrotation Zrotation
				JOINT LeftFoot
				{
					OFFSET -0.708756 -10.717838 -2.184338
					CHANNELS 3 Xrotation Yrotation Zrotation
					JOINT LeftToeBase
					{
						OFFSET 0.108149 -7.191104 7.560241
						CHANNELS 3 Xrotation Yrotation Zrotation
						JOINT LeftToe_End
						{
							OFFSET 0.070230 0.081724 4.490308
							CHANNELS 3 Xrotation Yrotation Zrotation
							End Site
							{
								OFFSET 0 0 0
							}
						}
					}
				}
			}
		}
	}
	JOINT RightUpLeg_virtual
	{
		OFFSET 0.000000 0.000000 0.000000
		CHANNELS 3 Xrotation Yrotation Zrotation
		JOINT RightUpLeg
		{
			OFFSET -10.205400 -3.823500 0.005500
			CHANNELS 3 Xrotation Yrotation Zrotation
			JOINT RightLeg
			{
				OFFSET -0.708756 -12.982134 0.610632
				CHANNELS 3 Xrotation Yrotation Zrotation
				JOINT RightFoot
				{
					OFFSET 0.708754 -10.717769 -1.945823
					CHANNELS 3 Xrotation Yrotation Zrotation
					JOINT RightToeBase
					{
						OFFSET -0.108140 -7.191069 7.372968
						CHANNELS 3 Xrotation Yrotation Zrotation
						JOINT RightToe_End
						{
							OFFSET -0.070227 0.081735 4.479403
							CHANNELS 3 Xrotation Yrotation Zrotation
							End Site
							{
								OFFSET 0 0 0
							}
						}
					}
				}
			}
		}
	}
	JOINT Spine_virtual
	{
		OFFSET 0.000000 0.000000 0.000000
		CHANNELS 3 Xrotation Yrotation Zrotation
		JOINT Spine
		{
			OFFSET 0.000000 6.876099 0.125700
			CHANNELS 3 Xrotation Yrotation Zrotation
			JOINT Spine1
			{
				OFFSET 0.000000 5.730043 0.104720
				CHANNELS 3 Xrotation Yrotation Zrotation
				JOINT Spine1_split
				{
					OFFSET 0.000000 5.730043 0.104720
					CHANNELS 3 Xrotation Yrotation Zrotation
					JOINT Spine2
					{
						OFFSET 0.000000 5.730043 0.104720
						CHANNELS 3 Xrotation Yrotation Zrotation
						JOINT Neck_virtual
						{
							OFFSET 0.000000 0.000000 0.000000
							CHANNELS 3 Xrotation Yrotation Zrotation
							JOINT Neck
							{
								OFFSET 0.000000 10.314075 0.188496
								CHANNELS 3 Xrotation Yrotation Zrotation
								JOINT Head
								{
									OFFSET 0.000000 7.643700 -2.377400
									CHANNELS 3 Xrotation Yrotation Zrotation
									JOINT HeadTop_End
									{
										OFFSET 0.000000 43.788605 -13.619600
										CHANNELS 3 Xrotation Yrotation Zrotation
										End Site
										{
											OFFSET 0 0 0
										}
									}
								}
							}
						}
						JOINT LeftShoulder_virtual
						{
							OFFSET 0.000000 0.000000 0.000000
							CHANNELS 3 Xrotation Yrotation Zrotation
							JOINT LeftShoulder
							{
								OFFSET 2.196100 4.412489 0.087492
								CHANNELS 3 Xrotation Yrotation Zrotation
								JOINT LeftShoulder_split
								{
									OFFSET 2.196100 4.412489 0.087492
									CHANNELS 3 Xrotation Yrotation Zrotation
									JOINT LeftArm
									{
										OFFSET 8.771219 -2.981674 -0.026999
										CHANNELS 3 Xrotation Yrotation Zrotation
										JOINT LeftForeArm
										{
											OFFSET 8.512804 0.000000 -0.000000
											CHANNELS 3 Xrotation Yrotation Zrotation
											JOINT LeftHand
											{
												OFFSET 18.484802 0.000000 -0.000000
												CHANNELS 3 Xrotation Yrotation Zrotation
												End Site
												{
													OFFSET 0 0 0
												}
											}
										}
									}
								}
							}
						}
						JOINT RightShoulder_virtual
						{
							OFFSET 0.000000 0.000000 0.000000
							CHANNELS 3 Xrotation Yrotation Zrotation
							JOINT RightShoulder
							{
								OFFSET -2.196100 4.412496 0.070690
								CHANNELS 3 Xrotation Yrotation Zrotation
								JOINT RightShoulder_split
								{
									OFFSET -2.196100 4.412496 0.070690
									CHANNELS 3 Xrotation Yrotation Zrotation
									JOINT RightArm
									{
										OFFSET -8.771282 -2.981682 -0.094208
										CHANNELS 3 Xrotation Yrotation Zrotation
										JOINT RightForeArm
										{
											OFFSET -8.494598 0.000000 0.000000
											CHANNELS 3 Xrotation Yrotation Zrotation
											JOINT RightHand
											{
												OFFSET -18.483803 0.000000 0.000001
												CHANNELS 3 Xrotation Yrotation Zrotation
												End Site
												{
													OFFSET 0 0 0
												}
											}
										}
									}
								}
							}
						}
					}
				}
			}
		}
	}
}
MOTION
Frames: 4
Frame Time: 0.03333333
-22.557312 10.812775 -3.423159 0.000000 0.000000 0.000000 -71.505626 16.477329 100.113607 -5.185674 31.429341 -6.061957 50.397572 -0.613395 -22.438558 -18.189960 -10.530705 33.057853 0.105283 -5.669327 6.906588 0.000000 0.000000 0.000000 -69.300875 10.653773 97.016062 -43.674924 -13.250911 -41.915163 137.926422 8.359625 14.327056 -5.685376 -0.316607 4.780972 7.898580 5.418755 -72.045218 0.000000 0.000000 0.000000 -73.588472 15.763228 100.020047 27.661680 -4.251755 -11.425468 3.593325 -2.713923 -3.922549 0.016528 2.920676 -0.469395 0.000000 0.000000 0.000000 5.724607 -1.798511 -0.815635 10.747872 -35.965037 7.979741 -20.072447 -11.694527 -26.513254 0.000000 0.000000 0.000000 2.515179 0.107129 -6.352522 -3.853256 16.412118 -5.783449 1.395666 -9.481464 1.492240 -47.940920 -41.775892 -29.718290 34.785815 39.253473 -2.484840 0.000000 0.000000 0.000000 10.928901 -0.373254 -4.322379 3.613530 -13.681140 -19.804803 -22.545365 -9.189990 9.724990 -32.119122 34.873648 17.719170 -2.393384 6.924103 10.510129 0.000000 0.000000 0.000000 
-24.173763 9.321550 -3.148220 0.000000 0.000000 0.000000 -72.383702 8.623146 101.782516 -5.959774 23.535147 -4.302961 52.066508 2.952151 -21.885895 -18.106799 -3.609125 33.121995 1.811659 -5.175842 1.702316 0.000000 0.000000 0.000000 -69.343974 3.091826 99.949307 -41.519026 -10.728118 -42.370457 136.947479 4.870524 22.218194 -12.757037 -2.773927 -0.294017 9.249584 5.088476 -70.461960 0.000000 0.000000 0.000000 -72.941038 8.393149 100.875781 28.250928 -6.746402 -11.498343 3.389646 -3.749320 -2.184648 0.058022 3.289317 -0.462402 0.000000 0.000000 0.000000 5.442213 -2.922637 0.579700 7.277357 -36.407193 8.660842 -15.687411 -11.617202 -26.243149 0.000000 0.000000 0.000000 2.262628 -1.020860 -4.644335 -3.931939 16.322800 -7.123859 1.838815 -8.280957 0.169412 -60.572051 -33.929969 -38.678190 35.935056 36.956460 -1.972228 0.000000 0.000000 0.000000 11.536427 -1.203590 -2.908175 2.663051 -13.371878 -17.103514 -26.028604 -9.290492 8.786356 -29.353793 32.066772 18.928741 -1.894005 5.710313 9.193987 0.000000 0.000000 0.000000 
-25.744423 8.532103 -3.092312 0.000000 0.000000 0.000000 -73.404303 2.544740 102.394788 -9.039761 16.240402 -1.243055 53.759265 6.056316 -21.579974 -15.307263 4.930132 30.771235 3.293275 -4.737439 -2.406465 0.000000 0.000000 0.000000 -69.744400 -3.115579 101.825492 -35.687995 -8.799937 -42.231746 131.839002 0.050032 29.888098 -15.968508 -5.429950 -2.121548 9.857840 4.938543 -67.461785 0.000000 0.000000 0.000000 -72.214552 2.349749 101.095460 28.832732 -8.276887 -11.028671 2.314942 -4.871284 -0.555199 0.098897 3.198789 -0.437043 0.000000 0.000000 0.000000 4.789891 -4.006580 1.855860 3.095371 -36.338536 9.678331 -10.937355 -8.401806 -23.526660 0.000000 0.000000 0.000000 1.153691 -1.991074 -3.013203 -4.178913 16.584201 -7.303667 2.223767 -6.466045 -2.061943 -70.661988 -20.126185 -42.951464 36.811851 33.105285 -0.509970 0.000000 0.000000 0.000000 11.026798 -2.155719 -1.762755 1.845161 -12.644774 -15.447960 -28.844247 -9.588033 7.505791 -29.240723 30.460694 23.234529 -1.403807 5.242033 7.545908 0.000000 0.000000 0.000000 
-27.241543 8.568119 -3.045839 0.000000 0.000000 0.000000 -74.444110 -1.612740 102.055498 -13.180795 10.004458 2.229526 53.591389 7.870144 -20.893487 -7.991295 13.247865 24.761642 3.742751 -4.436598 -4.507634 0.000000 0.000000 0.000000 -70.979715 -7.460442 102.216636 -27.813987 -6.827150 -42.023576 121.650177 -6.416039 36.050760 -13.439987 -8.014116 0.944525 9.174387 5.312210 -63.799438 0.000000 0.000000 0.000000 -71.667905 -2.048662 100.812581 29.487880 -8.644707 -9.981443 0.691550 -6.158769 0.633004 0.148362 2.732866 -0.445606 0.000000 0.000000 0.000000 4.026410 -5.072091 2.792679 -1.452720 -35.628490 11.216613 -6.034747 -1.549479 -19.687926 0.000000 0.000000 0.000000 -0.525427 -2.947869 -1.907321 -4.601996 16.845270 -6.090189 2.614614 -4.795144 -4.155524 -77.456811 -5.370802 -42.231698 37.544618 28.642989 1.606721 0.000000 0.000000 0.000000 9.621470 -3.326458 -1.186589 1.194347 -11.745341 -15.005027 -29.566752 -11.417063 6.164214 -30.734318 29.182844 28.886779 -1.010508 4.311377 5.746729 0.000000 0.000000 0.000000 
